<svg width="512" height="512" viewBox="0 0 512 512" fill="none" xmlns="http://www.w3.org/2000/svg">
<path d="M256 512C397.385 512 512 397.385 512 256C512 114.615 397.385 0 256 0C114.615 0 0 114.615 0 256C0 397.385 114.615 512 256 512Z" fill="#C4C8D1"/>
<path d="M258.93 511.963C398.963 510.39 512 396.405 512 256C512 253.743 511.965 251.494 511.911 249.251C508.358 111.959 396.711 1.58399 258.928 0.0369873C369.973 28.892 452.182 132.531 452.182 256C452.182 379.468 369.974 483.107 258.93 511.963Z" fill="#B4B7BF"/>
<path d="M369.282 26.385C351.858 35.934 340.041 54.441 340.041 75.712C340.041 106.758 365.209 131.926 396.255 131.926C422.44 131.926 444.443 114.023 450.691 89.789C428.243 63.518 400.571 41.851 369.282 26.385Z" fill="#787780"/>
<path d="M419.502 126.883C434.786 119.93 446.418 106.352 450.689 89.8C450.467 89.54 450.243 89.282 450.02 89.023C448.996 87.834 447.963 86.653 446.917 85.484C446.526 85.047 446.133 84.613 445.739 84.179C444.723 83.058 443.697 81.945 442.662 80.842C442.238 80.391 441.813 79.941 441.386 79.493C440.359 78.415 439.322 77.347 438.277 76.286C437.836 75.839 437.396 75.392 436.952 74.948C435.897 73.894 434.83 72.851 433.757 71.814C433.313 71.386 432.872 70.955 432.425 70.53C431.319 69.477 430.199 68.438 429.074 67.405C428.651 67.017 428.232 66.625 427.807 66.24C426.609 65.155 425.396 64.085 424.177 63.022C423.814 62.706 423.456 62.384 423.092 62.07C421.699 60.868 420.289 59.685 418.87 58.513C418.674 58.351 418.482 58.185 418.285 58.024C414.972 55.305 411.59 52.667 408.141 50.115C408.127 50.105 408.113 50.095 408.099 50.085C406.434 48.853 404.752 47.642 403.056 46.45C402.673 46.181 402.284 45.92 401.899 45.653C400.566 44.727 399.229 43.808 397.878 42.907C397.348 42.553 396.811 42.209 396.278 41.859C395.061 41.06 393.84 40.266 392.609 39.487C391.997 39.1 391.38 38.722 390.765 38.34C389.597 37.615 388.425 36.896 387.245 36.189C386.582 35.793 385.915 35.403 385.249 35.012C384.103 34.34 382.953 33.675 381.796 33.021C381.094 32.624 380.39 32.232 379.684 31.842C378.547 31.214 377.406 30.593 376.259 29.982C375.529 29.593 374.797 29.206 374.063 28.824C372.925 28.232 371.781 27.65 370.633 27.074C370.179 26.846 369.724 26.621 369.269 26.395C361.286 30.773 354.491 37.039 349.463 44.583C378.006 66.619 401.937 94.657 419.502 126.883Z" fill="#67666E"/>
<path d="M434.861 349.917C451.263 349.917 464.56 336.62 464.56 320.218C464.56 303.816 451.263 290.519 434.861 290.519C418.459 290.519 405.162 303.816 405.162 320.218C405.162 336.62 418.459 349.917 434.861 349.917Z" fill="#787780"/>
<path d="M103 402C114.046 402 123 393.046 123 382C123 370.954 114.046 362 103 362C91.9543 362 83 370.954 83 382C83 393.046 91.9543 402 103 402Z" fill="#787780"/>
<path d="M434.861 290.519C432.335 290.519 429.883 290.837 427.542 291.43C449.22 304.064 449.266 336.357 427.544 349.006C429.885 349.599 432.336 349.917 434.861 349.917C451.263 349.917 464.56 336.62 464.56 320.218C464.56 303.816 451.263 290.519 434.861 290.519Z" fill="#67666E"/>
<path d="M217.782 483.564C240.305 483.564 258.564 465.305 258.564 442.782C258.564 420.259 240.305 402 217.782 402C195.259 402 177 420.259 177 442.782C177 465.305 195.259 483.564 217.782 483.564Z" fill="#787780"/>
<path d="M217.921 402C215.561 402 213.251 402.212 211 402.597C225.446 410.188 235.304 425.329 235.304 442.782C235.304 460.235 225.446 475.376 211 482.967C213.251 483.352 215.56 483.564 217.921 483.564C240.444 483.564 258.703 465.305 258.703 442.782C258.703 420.259 240.444 402 217.921 402Z" fill="#67666E"/>
<path d="M159.616 131.926C179.81 131.926 196.181 115.555 196.181 95.361C196.181 75.1667 179.81 58.796 159.616 58.796C139.421 58.796 123.051 75.1667 123.051 95.361C123.051 115.555 139.421 131.926 159.616 131.926Z" fill="#787780"/>
<path d="M159.616 58.796C156.061 58.796 152.629 59.313 149.379 60.259C161.554 67.223 169.761 80.33 169.761 95.361C169.761 110.392 161.553 123.499 149.379 130.463C152.628 131.409 156.061 131.926 159.615 131.926C179.809 131.926 196.18 115.555 196.18 95.361C196.182 75.167 179.811 58.796 159.616 58.796Z" fill="#67666E"/>
<path d="M196.17 318.34C236.028 318.34 268.34 286.028 268.34 246.17C268.34 206.312 236.028 174 196.17 174C156.312 174 124 206.312 124 246.17C124 286.028 156.312 318.34 196.17 318.34Z" fill="#787780"/>
<path d="M223 57C228.523 57 233 52.5228 233 47C233 41.4771 228.523 37 223 37C217.477 37 213 41.4771 213 47C213 52.5228 217.477 57 223 57Z" fill="#787780"/>
<path d="M330 463C335.523 463 340 458.523 340 453C340 447.477 335.523 443 330 443C324.477 443 320 447.477 320 453C320 458.523 324.477 463 330 463Z" fill="#787780"/>
<path d="M198.372 174C193.45 174 188.645 174.497 184 175.436C210.953 187.596 229.724 214.68 229.724 246.17C229.724 277.66 210.953 304.744 184 316.904C188.645 317.843 193.451 318.34 198.372 318.34C238.23 318.34 270.542 286.028 270.542 246.17C270.542 206.312 238.23 174 198.372 174Z" fill="#67666E"/>
</svg>
