<svg width="512" height="512" viewBox="0 0 512 512" fill="none" xmlns="http://www.w3.org/2000/svg">
<g clip-path="url(#clip0)">
<g filter="url(#filter0_f)">
<path d="M256 0C187.62 0 123.332 26.6291 74.9807 74.9807C26.6291 123.333 0 187.621 0 256C0 324.379 26.6291 388.667 74.9807 437.019C123.332 485.371 187.62 512 256 512C274.015 512 291.74 510.133 308.97 506.527V5.47335C291.74 1.86669 274.015 0 256 0V0Z" fill="#FFC700"/>
</g>
<path d="M512 256C512 187.621 485.371 123.333 437.02 74.9807C401.406 39.3674 357.141 15.5568 308.97 5.47339C260.798 15.5568 216.534 39.3674 180.921 74.9807C132.569 123.333 105.94 187.621 105.94 256C105.94 324.379 132.569 388.667 180.921 437.019C216.534 472.633 260.799 496.443 308.97 506.527C357.142 496.443 401.406 472.633 437.02 437.019C485.371 388.667 512 324.379 512 256Z" fill="#FFA800"/>
<path d="M427.298 351.807C452.9 351.807 473.656 331.052 473.656 305.449C473.656 279.846 452.9 259.091 427.298 259.091C401.695 259.091 380.939 279.846 380.939 305.449C380.939 331.052 401.695 351.807 427.298 351.807Z" fill="#FF8A00"/>
<path d="M139.358 212.716C164.961 212.716 185.716 191.961 185.716 166.358C185.716 140.755 164.961 120 139.358 120C113.755 120 93 140.755 93 166.358C93 191.961 113.755 212.716 139.358 212.716Z" fill="#FF8A00"/>
<path d="M316.905 227.811C333.974 227.811 347.811 213.974 347.811 196.905C347.811 179.837 333.974 166 316.905 166C299.837 166 286 179.837 286 196.905C286 213.974 299.837 227.811 316.905 227.811Z" fill="#FF8A00"/>
<path d="M332.69 441.433C341.224 441.433 348.143 434.514 348.143 425.98C348.143 417.446 341.224 410.527 332.69 410.527C324.156 410.527 317.237 417.446 317.237 425.98C317.237 434.514 324.156 441.433 332.69 441.433Z" fill="#FF8A00"/>
<path d="M61.8111 271.453C70.3454 271.453 77.2638 264.534 77.2638 256C77.2638 247.466 70.3454 240.547 61.8111 240.547C53.2768 240.547 46.3584 247.466 46.3584 256C46.3584 264.534 53.2768 271.453 61.8111 271.453Z" fill="#FFA300"/>
<path d="M377.392 120.016C385.926 120.016 392.845 113.098 392.845 104.563C392.845 96.0291 385.926 89.1107 377.392 89.1107C368.858 89.1107 361.939 96.0291 361.939 104.563C361.939 113.098 368.858 120.016 377.392 120.016Z" fill="#FF8A00"/>
<path d="M240.5 101C247.404 101 253 95.4036 253 88.5C253 81.5964 247.404 76 240.5 76C233.596 76 228 81.5964 228 88.5C228 95.4036 233.596 101 240.5 101Z" fill="#FFA300"/>
<path d="M199.5 38C203.642 38 207 34.6421 207 30.5C207 26.3579 203.642 23 199.5 23C195.358 23 192 26.3579 192 30.5C192 34.6421 195.358 38 199.5 38Z" fill="#FFA300"/>
<path d="M181.273 437.366L117.558 332.611C102.478 343.883 92.7163 361.877 92.7163 382.152C92.7163 416.289 120.39 443.963 154.527 443.963C164.249 443.963 173.09 441.366 181.273 437.366C181.507 437.6 181.039 437.134 181.273 437.366Z" fill="#FFA609"/>
<path d="M216.339 382.152C216.339 348.015 188.665 320.341 154.528 320.341C140.666 320.341 127.869 324.905 117.559 332.611C129.73 371.595 151.572 407.664 181.274 437.366C181.508 437.6 181.039 437.134 181.274 437.366C201.826 427.324 216.339 406.568 216.339 382.152Z" fill="#FF8A00"/>
</g>
<defs>
<filter id="filter0_f" x="-4" y="-4" width="316.97" height="520" filterUnits="userSpaceOnUse" color-interpolation-filters="sRGB">
<feFlood flood-opacity="0" result="BackgroundImageFix"/>
<feBlend mode="normal" in="SourceGraphic" in2="BackgroundImageFix" result="shape"/>
<feGaussianBlur stdDeviation="2" result="effect1_foregroundBlur"/>
</filter>
<clipPath id="clip0">
<path d="M0 0H512V512H0V0Z" fill="white"/>
</clipPath>
</defs>
</svg>
